<?xml version="1.0" encoding="UTF-8" standalone="no"?>
<!DOCTYPE svg PUBLIC "-//W3C//DTD SVG 1.1//EN"
 "http://www.w3.org/Graphics/SVG/1.1/DTD/svg11.dtd">
<!-- Generated by graphviz version 2.40.1 (20161225.0304)
 -->
<!-- Title: dependencies Pages: 1 -->
<svg width="504pt" height="284pt"
 viewBox="0.00 0.00 504.00 284.00" xmlns="http://www.w3.org/2000/svg" xmlns:xlink="http://www.w3.org/1999/xlink">
<g id="graph0" class="graph" transform="scale(1 1) rotate(0) translate(4 280)">
<title>dependencies</title>
<polygon fill="#ffffff" stroke="transparent" points="-4,4 -4,-280 500,-280 500,4 -4,4"/>
<text text-anchor="start" x="227.0091" y="-42.4" font-family="sans-serif" font-weight="bold" font-size="14.00" fill="#000000">Legend</text>
<polygon fill="#ffffb3" stroke="transparent" points="14,-10 14,-30 34,-30 34,-10 14,-10"/>
<text text-anchor="start" x="37.629" y="-15.4" font-family="sans-serif" font-size="14.00" fill="#000000"> &#160;Declarations</text>
<polygon fill="#8dd3c7" stroke="transparent" points="127,-10 127,-30 147,-30 147,-10 127,-10"/>
<text text-anchor="start" x="150.7251" y="-15.4" font-family="sans-serif" font-size="14.00" fill="#000000"> &#160;Module</text>
<polygon fill="#80b1d3" stroke="transparent" points="213,-10 213,-30 233,-30 233,-10 213,-10"/>
<text text-anchor="start" x="236.7812" y="-15.4" font-family="sans-serif" font-size="14.00" fill="#000000"> &#160;Bootstrap</text>
<polygon fill="#fdb462" stroke="transparent" points="310,-10 310,-30 330,-30 330,-10 310,-10"/>
<text text-anchor="start" x="333.6732" y="-15.4" font-family="sans-serif" font-size="14.00" fill="#000000"> &#160;Providers</text>
<polygon fill="#fb8072" stroke="transparent" points="406,-10 406,-30 426,-30 426,-10 406,-10"/>
<text text-anchor="start" x="429.7258" y="-15.4" font-family="sans-serif" font-size="14.00" fill="#000000"> &#160;Exports</text>
<g id="clust1" class="cluster">
<title>cluster_CloukitIconModule</title>
<polygon fill="none" stroke="#000000" stroke-dasharray="1,5" points="60,-70 60,-268 436,-268 436,-70 60,-70"/>
</g>
<g id="clust2" class="cluster">
<title>cluster_CloukitIconModule_declarations</title>
<polygon fill="none" stroke="#000000" points="264,-78 264,-130 428,-130 428,-78 264,-78"/>
</g>
<g id="clust5" class="cluster">
<title>cluster_CloukitIconModule_exports</title>
<polygon fill="none" stroke="#000000" points="169,-208 169,-260 337,-260 337,-208 169,-208"/>
</g>
<g id="clust7" class="cluster">
<title>cluster_CloukitIconModule_providers</title>
<polygon fill="none" stroke="#000000" points="68,-78 68,-130 256,-130 256,-78 68,-78"/>
</g>
<!-- CloukitIconComponent -->
<g id="node1" class="node">
<title>CloukitIconComponent</title>
<polygon fill="#ffffb3" stroke="#000000" points="420.2162,-122 271.7838,-122 271.7838,-86 420.2162,-86 420.2162,-122"/>
<text text-anchor="middle" x="346" y="-99.8" font-family="Times,serif" font-size="14.00" fill="#000000">CloukitIconComponent</text>
</g>
<!-- CloukitIconModule -->
<g id="node2" class="node">
<title>CloukitIconModule</title>
<polygon fill="#8dd3c7" stroke="#000000" points="316.4341,-187 313.4341,-191 292.4341,-191 289.4341,-187 189.5659,-187 189.5659,-151 316.4341,-151 316.4341,-187"/>
<text text-anchor="middle" x="253" y="-164.8" font-family="Times,serif" font-size="14.00" fill="#000000">CloukitIconModule</text>
</g>
<!-- CloukitIconComponent&#45;&gt;CloukitIconModule -->
<g id="edge1" class="edge">
<title>CloukitIconComponent&#45;&gt;CloukitIconModule</title>
<path fill="none" stroke="#000000" d="M294.0544,-122.1061C294.0544,-122.1061 294.0544,-140.991 294.0544,-140.991"/>
<polygon fill="#000000" stroke="#000000" points="290.5544,-140.9909 294.0544,-150.991 297.5544,-140.991 290.5544,-140.9909"/>
</g>
<!-- CloukitIconComponent  -->
<g id="node3" class="node">
<title>CloukitIconComponent </title>
<polygon fill="#fb8072" stroke="#000000" points="328.7163,-252 177.2837,-252 177.2837,-216 328.7163,-216 328.7163,-252"/>
<text text-anchor="middle" x="253" y="-229.8" font-family="Times,serif" font-size="14.00" fill="#000000">CloukitIconComponent </text>
</g>
<!-- CloukitIconModule&#45;&gt;CloukitIconComponent  -->
<g id="edge2" class="edge">
<title>CloukitIconModule&#45;&gt;CloukitIconComponent </title>
<path fill="none" stroke="#000000" stroke-dasharray="5,2" d="M253,-187.1061C253,-187.1061 253,-205.991 253,-205.991"/>
<polygon fill="#000000" stroke="#000000" points="249.5001,-205.9909 253,-215.991 256.5001,-205.991 249.5001,-205.9909"/>
</g>
<!-- CloukitIconService -->
<g id="node4" class="node">
<title>CloukitIconService</title>
<ellipse fill="#fdb462" stroke="#000000" cx="162" cy="-104" rx="86.2541" ry="18"/>
<text text-anchor="middle" x="162" y="-99.8" font-family="Times,serif" font-size="14.00" fill="#000000">CloukitIconService</text>
</g>
<!-- CloukitIconService&#45;&gt;CloukitIconModule -->
<g id="edge3" class="edge">
<title>CloukitIconService&#45;&gt;CloukitIconModule</title>
<path fill="none" stroke="#000000" d="M218.9551,-117.7848C218.9551,-117.7848 218.9551,-140.5475 218.9551,-140.5475"/>
<polygon fill="#000000" stroke="#000000" points="215.4552,-140.5474 218.9551,-150.5475 222.4552,-140.5475 215.4552,-140.5474"/>
</g>
</g>
</svg>
