<?xml version="1.0" encoding="UTF-8" standalone="no"?>
<!DOCTYPE svg PUBLIC "-//W3C//DTD SVG 1.1//EN"
 "http://www.w3.org/Graphics/SVG/1.1/DTD/svg11.dtd">
<!-- Generated by graphviz version 2.40.1 (20161225.0304)
 -->
<!-- Title: dependencies Pages: 1 -->
<svg width="504pt" height="284pt"
 viewBox="0.00 0.00 504.00 284.00" xmlns="http://www.w3.org/2000/svg" xmlns:xlink="http://www.w3.org/1999/xlink">
<g id="graph0" class="graph" transform="scale(1 1) rotate(0) translate(4 280)">
<title>dependencies</title>
<polygon fill="#ffffff" stroke="transparent" points="-4,4 -4,-280 500,-280 500,4 -4,4"/>
<text text-anchor="start" x="227.0091" y="-42.4" font-family="sans-serif" font-weight="bold" font-size="14.00" fill="#000000">Legend</text>
<polygon fill="#ffffb3" stroke="transparent" points="14,-10 14,-30 34,-30 34,-10 14,-10"/>
<text text-anchor="start" x="37.629" y="-15.4" font-family="sans-serif" font-size="14.00" fill="#000000"> &#160;Declarations</text>
<polygon fill="#8dd3c7" stroke="transparent" points="127,-10 127,-30 147,-30 147,-10 127,-10"/>
<text text-anchor="start" x="150.7251" y="-15.4" font-family="sans-serif" font-size="14.00" fill="#000000"> &#160;Module</text>
<polygon fill="#80b1d3" stroke="transparent" points="213,-10 213,-30 233,-30 233,-10 213,-10"/>
<text text-anchor="start" x="236.7812" y="-15.4" font-family="sans-serif" font-size="14.00" fill="#000000"> &#160;Bootstrap</text>
<polygon fill="#fdb462" stroke="transparent" points="310,-10 310,-30 330,-30 330,-10 310,-10"/>
<text text-anchor="start" x="333.6732" y="-15.4" font-family="sans-serif" font-size="14.00" fill="#000000"> &#160;Providers</text>
<polygon fill="#fb8072" stroke="transparent" points="406,-10 406,-30 426,-30 426,-10 406,-10"/>
<text text-anchor="start" x="429.7258" y="-15.4" font-family="sans-serif" font-size="14.00" fill="#000000"> &#160;Exports</text>
<g id="clust1" class="cluster">
<title>cluster_CloukitIconModule</title>
<polygon fill="none" stroke="#000000" stroke-dasharray="1,5" points="21,-70 21,-268 475,-268 475,-70 21,-70"/>
</g>
<g id="clust2" class="cluster">
<title>cluster_CloukitIconModule_declarations</title>
<polygon fill="none" stroke="#000000" points="303,-78 303,-130 467,-130 467,-78 303,-78"/>
</g>
<g id="clust4" class="cluster">
<title>cluster_CloukitIconModule_imports</title>
<polygon fill="none" stroke="#000000" points="167,-78 167,-130 295,-130 295,-78 167,-78"/>
</g>
<g id="clust5" class="cluster">
<title>cluster_CloukitIconModule_exports</title>
<polygon fill="none" stroke="#000000" points="147,-208 147,-260 315,-260 315,-208 147,-208"/>
</g>
<g id="clust7" class="cluster">
<title>cluster_CloukitIconModule_providers</title>
<polygon fill="none" stroke="#000000" points="29,-78 29,-130 159,-130 159,-78 29,-78"/>
</g>
<!-- CloukitIconComponent -->
<g id="node1" class="node">
<title>CloukitIconComponent</title>
<polygon fill="#ffffb3" stroke="#000000" points="459.2162,-122 310.7838,-122 310.7838,-86 459.2162,-86 459.2162,-122"/>
<text text-anchor="middle" x="385" y="-99.8" font-family="Times,serif" font-size="14.00" fill="#000000">CloukitIconComponent</text>
</g>
<!-- CloukitIconModule -->
<g id="node2" class="node">
<title>CloukitIconModule</title>
<polygon fill="#8dd3c7" stroke="#000000" points="294.4341,-187 291.4341,-191 270.4341,-191 267.4341,-187 167.5659,-187 167.5659,-151 294.4341,-151 294.4341,-187"/>
<text text-anchor="middle" x="231" y="-164.8" font-family="Times,serif" font-size="14.00" fill="#000000">CloukitIconModule</text>
</g>
<!-- CloukitIconComponent&#45;&gt;CloukitIconModule -->
<g id="edge1" class="edge">
<title>CloukitIconComponent&#45;&gt;CloukitIconModule</title>
<path fill="none" stroke="#000000" d="M310.5609,-104C298.8518,-104 290.5253,-104 290.5253,-104 290.5253,-104 290.5253,-140.8939 290.5253,-140.8939"/>
<polygon fill="#000000" stroke="#000000" points="287.0253,-140.8938 290.5253,-150.8939 294.0253,-140.8939 287.0253,-140.8938"/>
</g>
<!-- CloukitIconComponent  -->
<g id="node4" class="node">
<title>CloukitIconComponent </title>
<polygon fill="#fb8072" stroke="#000000" points="306.7163,-252 155.2837,-252 155.2837,-216 306.7163,-216 306.7163,-252"/>
<text text-anchor="middle" x="231" y="-229.8" font-family="Times,serif" font-size="14.00" fill="#000000">CloukitIconComponent </text>
</g>
<!-- CloukitIconModule&#45;&gt;CloukitIconComponent  -->
<g id="edge3" class="edge">
<title>CloukitIconModule&#45;&gt;CloukitIconComponent </title>
<path fill="none" stroke="#000000" stroke-dasharray="5,2" d="M231,-187.1061C231,-187.1061 231,-205.991 231,-205.991"/>
<polygon fill="#000000" stroke="#000000" points="227.5001,-205.9909 231,-215.991 234.5001,-205.991 227.5001,-205.9909"/>
</g>
<!-- CommonModule -->
<g id="node3" class="node">
<title>CommonModule</title>
<polygon fill="#8dd3c7" stroke="#000000" points="286.6681,-122 283.6681,-126 262.6681,-126 259.6681,-122 175.3319,-122 175.3319,-86 286.6681,-86 286.6681,-122"/>
<text text-anchor="middle" x="231" y="-99.8" font-family="Times,serif" font-size="14.00" fill="#000000">CommonModule</text>
</g>
<!-- CommonModule&#45;&gt;CloukitIconModule -->
<g id="edge2" class="edge">
<title>CommonModule&#45;&gt;CloukitIconModule</title>
<path fill="none" stroke="#000000" d="M231,-122.1061C231,-122.1061 231,-140.991 231,-140.991"/>
<polygon fill="#000000" stroke="#000000" points="227.5001,-140.9909 231,-150.991 234.5001,-140.991 227.5001,-140.9909"/>
</g>
<!-- IconService -->
<g id="node5" class="node">
<title>IconService</title>
<ellipse fill="#fdb462" stroke="#000000" cx="94" cy="-104" rx="57.3011" ry="18"/>
<text text-anchor="middle" x="94" y="-99.8" font-family="Times,serif" font-size="14.00" fill="#000000">IconService</text>
</g>
<!-- IconService&#45;&gt;CloukitIconModule -->
<g id="edge4" class="edge">
<title>IconService&#45;&gt;CloukitIconModule</title>
<path fill="none" stroke="#000000" d="M151.5231,-104C162.9336,-104 171.4748,-104 171.4748,-104 171.4748,-104 171.4748,-140.8939 171.4748,-140.8939"/>
<polygon fill="#000000" stroke="#000000" points="167.9748,-140.8938 171.4748,-150.8939 174.9748,-140.8939 167.9748,-140.8938"/>
</g>
</g>
</svg>
