<?xml version="1.0" encoding="UTF-8" standalone="no"?>
<!DOCTYPE svg PUBLIC "-//W3C//DTD SVG 1.1//EN"
 "http://www.w3.org/Graphics/SVG/1.1/DTD/svg11.dtd">
<!-- Generated by graphviz version 2.40.1 (20161225.0304)
 -->
<!-- Title: dependencies Pages: 1 -->
<svg width="536pt" height="284pt"
 viewBox="0.00 0.00 536.00 284.00" xmlns="http://www.w3.org/2000/svg" xmlns:xlink="http://www.w3.org/1999/xlink">
<g id="graph0" class="graph" transform="scale(1 1) rotate(0) translate(4 280)">
<title>dependencies</title>
<polygon fill="#ffffff" stroke="transparent" points="-4,4 -4,-280 532,-280 532,4 -4,4"/>
<text text-anchor="start" x="243.0091" y="-42.4" font-family="sans-serif" font-weight="bold" font-size="14.00" fill="#000000">Legend</text>
<polygon fill="#ffffb3" stroke="transparent" points="30,-10 30,-30 50,-30 50,-10 30,-10"/>
<text text-anchor="start" x="53.629" y="-15.4" font-family="sans-serif" font-size="14.00" fill="#000000"> &#160;Declarations</text>
<polygon fill="#8dd3c7" stroke="transparent" points="143,-10 143,-30 163,-30 163,-10 143,-10"/>
<text text-anchor="start" x="166.7251" y="-15.4" font-family="sans-serif" font-size="14.00" fill="#000000"> &#160;Module</text>
<polygon fill="#80b1d3" stroke="transparent" points="229,-10 229,-30 249,-30 249,-10 229,-10"/>
<text text-anchor="start" x="252.7812" y="-15.4" font-family="sans-serif" font-size="14.00" fill="#000000"> &#160;Bootstrap</text>
<polygon fill="#fdb462" stroke="transparent" points="326,-10 326,-30 346,-30 346,-10 326,-10"/>
<text text-anchor="start" x="349.6732" y="-15.4" font-family="sans-serif" font-size="14.00" fill="#000000"> &#160;Providers</text>
<polygon fill="#fb8072" stroke="transparent" points="422,-10 422,-30 442,-30 442,-10 422,-10"/>
<text text-anchor="start" x="445.7258" y="-15.4" font-family="sans-serif" font-size="14.00" fill="#000000"> &#160;Exports</text>
<g id="clust1" class="cluster">
<title>cluster_CloukitIconModule</title>
<polygon fill="none" stroke="#000000" stroke-dasharray="1,5" points="8,-70 8,-268 520,-268 520,-70 8,-70"/>
</g>
<g id="clust2" class="cluster">
<title>cluster_CloukitIconModule_declarations</title>
<polygon fill="none" stroke="#000000" points="348,-78 348,-130 512,-130 512,-78 348,-78"/>
</g>
<g id="clust4" class="cluster">
<title>cluster_CloukitIconModule_imports</title>
<polygon fill="none" stroke="#000000" points="212,-78 212,-130 340,-130 340,-78 212,-78"/>
</g>
<g id="clust5" class="cluster">
<title>cluster_CloukitIconModule_exports</title>
<polygon fill="none" stroke="#000000" points="192,-208 192,-260 360,-260 360,-208 192,-208"/>
</g>
<g id="clust7" class="cluster">
<title>cluster_CloukitIconModule_providers</title>
<polygon fill="none" stroke="#000000" points="16,-78 16,-130 204,-130 204,-78 16,-78"/>
</g>
<!-- CloukitIconComponent -->
<g id="node1" class="node">
<title>CloukitIconComponent</title>
<polygon fill="#ffffb3" stroke="#000000" points="504.2162,-122 355.7838,-122 355.7838,-86 504.2162,-86 504.2162,-122"/>
<text text-anchor="middle" x="430" y="-99.8" font-family="Times,serif" font-size="14.00" fill="#000000">CloukitIconComponent</text>
</g>
<!-- CloukitIconModule -->
<g id="node2" class="node">
<title>CloukitIconModule</title>
<polygon fill="#8dd3c7" stroke="#000000" points="339.4341,-187 336.4341,-191 315.4341,-191 312.4341,-187 212.5659,-187 212.5659,-151 339.4341,-151 339.4341,-187"/>
<text text-anchor="middle" x="276" y="-164.8" font-family="Times,serif" font-size="14.00" fill="#000000">CloukitIconModule</text>
</g>
<!-- CloukitIconComponent&#45;&gt;CloukitIconModule -->
<g id="edge1" class="edge">
<title>CloukitIconComponent&#45;&gt;CloukitIconModule</title>
<path fill="none" stroke="#000000" d="M355.5609,-104C343.8518,-104 335.5253,-104 335.5253,-104 335.5253,-104 335.5253,-140.8939 335.5253,-140.8939"/>
<polygon fill="#000000" stroke="#000000" points="332.0253,-140.8938 335.5253,-150.8939 339.0253,-140.8939 332.0253,-140.8938"/>
</g>
<!-- CloukitIconComponent  -->
<g id="node4" class="node">
<title>CloukitIconComponent </title>
<polygon fill="#fb8072" stroke="#000000" points="351.7163,-252 200.2837,-252 200.2837,-216 351.7163,-216 351.7163,-252"/>
<text text-anchor="middle" x="276" y="-229.8" font-family="Times,serif" font-size="14.00" fill="#000000">CloukitIconComponent </text>
</g>
<!-- CloukitIconModule&#45;&gt;CloukitIconComponent  -->
<g id="edge3" class="edge">
<title>CloukitIconModule&#45;&gt;CloukitIconComponent </title>
<path fill="none" stroke="#000000" stroke-dasharray="5,2" d="M276,-187.1061C276,-187.1061 276,-205.991 276,-205.991"/>
<polygon fill="#000000" stroke="#000000" points="272.5001,-205.9909 276,-215.991 279.5001,-205.991 272.5001,-205.9909"/>
</g>
<!-- CommonModule -->
<g id="node3" class="node">
<title>CommonModule</title>
<polygon fill="#8dd3c7" stroke="#000000" points="331.6681,-122 328.6681,-126 307.6681,-126 304.6681,-122 220.3319,-122 220.3319,-86 331.6681,-86 331.6681,-122"/>
<text text-anchor="middle" x="276" y="-99.8" font-family="Times,serif" font-size="14.00" fill="#000000">CommonModule</text>
</g>
<!-- CommonModule&#45;&gt;CloukitIconModule -->
<g id="edge2" class="edge">
<title>CommonModule&#45;&gt;CloukitIconModule</title>
<path fill="none" stroke="#000000" d="M276,-122.1061C276,-122.1061 276,-140.991 276,-140.991"/>
<polygon fill="#000000" stroke="#000000" points="272.5001,-140.9909 276,-150.991 279.5001,-140.991 272.5001,-140.9909"/>
</g>
<!-- CloukitIconService -->
<g id="node5" class="node">
<title>CloukitIconService</title>
<ellipse fill="#fdb462" stroke="#000000" cx="110" cy="-104" rx="86.2541" ry="18"/>
<text text-anchor="middle" x="110" y="-99.8" font-family="Times,serif" font-size="14.00" fill="#000000">CloukitIconService</text>
</g>
<!-- CloukitIconService&#45;&gt;CloukitIconModule -->
<g id="edge4" class="edge">
<title>CloukitIconService&#45;&gt;CloukitIconModule</title>
<path fill="none" stroke="#000000" d="M196.4477,-104C208.2848,-104 216.4748,-104 216.4748,-104 216.4748,-104 216.4748,-140.8939 216.4748,-140.8939"/>
<polygon fill="#000000" stroke="#000000" points="212.9748,-140.8938 216.4748,-150.8939 219.9748,-140.8939 212.9748,-140.8938"/>
</g>
</g>
</svg>
