<?xml version="1.0" encoding="UTF-8" standalone="no"?>
<!DOCTYPE svg PUBLIC "-//W3C//DTD SVG 1.1//EN"
 "http://www.w3.org/Graphics/SVG/1.1/DTD/svg11.dtd">
<!-- Generated by graphviz version 2.40.1 (20161225.0304)
 -->
<!-- Title: dependencies Pages: 1 -->
<svg width="1322pt" height="284pt"
 viewBox="0.00 0.00 1322.00 284.00" xmlns="http://www.w3.org/2000/svg" xmlns:xlink="http://www.w3.org/1999/xlink">
<g id="graph0" class="graph" transform="scale(1 1) rotate(0) translate(4 280)">
<title>dependencies</title>
<polygon fill="#ffffff" stroke="transparent" points="-4,4 -4,-280 1318,-280 1318,4 -4,4"/>
<text text-anchor="start" x="636.0091" y="-42.4" font-family="sans-serif" font-weight="bold" font-size="14.00" fill="#000000">Legend</text>
<polygon fill="#ffffb3" stroke="transparent" points="423,-10 423,-30 443,-30 443,-10 423,-10"/>
<text text-anchor="start" x="446.629" y="-15.4" font-family="sans-serif" font-size="14.00" fill="#000000"> &#160;Declarations</text>
<polygon fill="#8dd3c7" stroke="transparent" points="536,-10 536,-30 556,-30 556,-10 536,-10"/>
<text text-anchor="start" x="559.7251" y="-15.4" font-family="sans-serif" font-size="14.00" fill="#000000"> &#160;Module</text>
<polygon fill="#80b1d3" stroke="transparent" points="622,-10 622,-30 642,-30 642,-10 622,-10"/>
<text text-anchor="start" x="645.7812" y="-15.4" font-family="sans-serif" font-size="14.00" fill="#000000"> &#160;Bootstrap</text>
<polygon fill="#fdb462" stroke="transparent" points="719,-10 719,-30 739,-30 739,-10 719,-10"/>
<text text-anchor="start" x="742.6732" y="-15.4" font-family="sans-serif" font-size="14.00" fill="#000000"> &#160;Providers</text>
<polygon fill="#fb8072" stroke="transparent" points="815,-10 815,-30 835,-30 835,-10 815,-10"/>
<text text-anchor="start" x="838.7258" y="-15.4" font-family="sans-serif" font-size="14.00" fill="#000000"> &#160;Exports</text>
<g id="clust1" class="cluster">
<title>cluster_DemoModule</title>
<polygon fill="none" stroke="#000000" stroke-dasharray="1,5" points="8,-70 8,-268 1306,-268 1306,-70 8,-70"/>
</g>
<g id="clust2" class="cluster">
<title>cluster_DemoModule_declarations</title>
<polygon fill="none" stroke="#000000" points="446,-78 446,-130 1298,-130 1298,-78 446,-78"/>
</g>
<g id="clust9" class="cluster">
<title>cluster_DemoModule_imports</title>
<polygon fill="none" stroke="#000000" points="16,-78 16,-130 438,-130 438,-78 16,-78"/>
</g>
<g id="clust10" class="cluster">
<title>cluster_DemoModule_exports</title>
<polygon fill="none" stroke="#000000" points="593,-208 593,-260 729,-260 729,-208 593,-208"/>
</g>
<!-- DemoComponent -->
<g id="node1" class="node">
<title>DemoComponent</title>
<polygon fill="#ffffb3" stroke="#000000" points="1289.5451,-122 1174.4549,-122 1174.4549,-86 1289.5451,-86 1289.5451,-122"/>
<text text-anchor="middle" x="1232" y="-99.8" font-family="Times,serif" font-size="14.00" fill="#000000">DemoComponent</text>
</g>
<!-- DemoModule -->
<g id="node7" class="node">
<title>DemoModule</title>
<polygon fill="#8dd3c7" stroke="#000000" points="707.7619,-187 704.7619,-191 683.7619,-191 680.7619,-187 614.2381,-187 614.2381,-151 707.7619,-151 707.7619,-187"/>
<text text-anchor="middle" x="661" y="-164.8" font-family="Times,serif" font-size="14.00" fill="#000000">DemoModule</text>
</g>
<!-- DemoComponent&#45;&gt;DemoModule -->
<g id="edge1" class="edge">
<title>DemoComponent&#45;&gt;DemoModule</title>
<path fill="none" stroke="#000000" d="M1232,-122.0109C1232,-144.4852 1232,-180 1232,-180 1232,-180 718.2131,-180 718.2131,-180"/>
<polygon fill="#000000" stroke="#000000" points="718.2132,-176.5001 708.2131,-180 718.2131,-183.5001 718.2132,-176.5001"/>
</g>
<!-- Story00Component -->
<g id="node2" class="node">
<title>Story00Component</title>
<polygon fill="#ffffb3" stroke="#000000" points="1155.6666,-122 1030.3334,-122 1030.3334,-86 1155.6666,-86 1155.6666,-122"/>
<text text-anchor="middle" x="1093" y="-99.8" font-family="Times,serif" font-size="14.00" fill="#000000">Story00Component</text>
</g>
<!-- Story00Component&#45;&gt;DemoModule -->
<g id="edge2" class="edge">
<title>Story00Component&#45;&gt;DemoModule</title>
<path fill="none" stroke="#000000" d="M1093,-122.1289C1093,-142.5724 1093,-173 1093,-173 1093,-173 718.0539,-173 718.0539,-173"/>
<polygon fill="#000000" stroke="#000000" points="718.054,-169.5001 708.0539,-173 718.0539,-176.5001 718.054,-169.5001"/>
</g>
<!-- Story01Component -->
<g id="node3" class="node">
<title>Story01Component</title>
<polygon fill="#ffffb3" stroke="#000000" points="1011.6666,-122 886.3334,-122 886.3334,-86 1011.6666,-86 1011.6666,-122"/>
<text text-anchor="middle" x="949" y="-99.8" font-family="Times,serif" font-size="14.00" fill="#000000">Story01Component</text>
</g>
<!-- Story01Component&#45;&gt;DemoModule -->
<g id="edge3" class="edge">
<title>Story01Component&#45;&gt;DemoModule</title>
<path fill="none" stroke="#000000" d="M949,-122.2667C949,-140.5552 949,-166 949,-166 949,-166 717.9132,-166 717.9132,-166"/>
<polygon fill="#000000" stroke="#000000" points="717.9132,-162.5001 707.9132,-166 717.9131,-169.5001 717.9132,-162.5001"/>
</g>
<!-- Story02Component -->
<g id="node4" class="node">
<title>Story02Component</title>
<polygon fill="#ffffb3" stroke="#000000" points="867.6666,-122 742.3334,-122 742.3334,-86 867.6666,-86 867.6666,-122"/>
<text text-anchor="middle" x="805" y="-99.8" font-family="Times,serif" font-size="14.00" fill="#000000">Story02Component</text>
</g>
<!-- Story02Component&#45;&gt;DemoModule -->
<g id="edge4" class="edge">
<title>Story02Component&#45;&gt;DemoModule</title>
<path fill="none" stroke="#000000" d="M805,-122.0091C805,-138.0494 805,-159 805,-159 805,-159 718.151,-159 718.151,-159"/>
<polygon fill="#000000" stroke="#000000" points="718.151,-155.5001 708.151,-159 718.151,-162.5001 718.151,-155.5001"/>
</g>
<!-- Story03Component -->
<g id="node5" class="node">
<title>Story03Component</title>
<polygon fill="#ffffb3" stroke="#000000" points="723.6666,-122 598.3334,-122 598.3334,-86 723.6666,-86 723.6666,-122"/>
<text text-anchor="middle" x="661" y="-99.8" font-family="Times,serif" font-size="14.00" fill="#000000">Story03Component</text>
</g>
<!-- Story03Component&#45;&gt;DemoModule -->
<g id="edge5" class="edge">
<title>Story03Component&#45;&gt;DemoModule</title>
<path fill="none" stroke="#000000" d="M661,-122.1061C661,-122.1061 661,-140.991 661,-140.991"/>
<polygon fill="#000000" stroke="#000000" points="657.5001,-140.9909 661,-150.991 664.5001,-140.991 657.5001,-140.9909"/>
</g>
<!-- Story04Component -->
<g id="node6" class="node">
<title>Story04Component</title>
<polygon fill="#ffffb3" stroke="#000000" points="579.6666,-122 454.3334,-122 454.3334,-86 579.6666,-86 579.6666,-122"/>
<text text-anchor="middle" x="517" y="-99.8" font-family="Times,serif" font-size="14.00" fill="#000000">Story04Component</text>
</g>
<!-- Story04Component&#45;&gt;DemoModule -->
<g id="edge6" class="edge">
<title>Story04Component&#45;&gt;DemoModule</title>
<path fill="none" stroke="#000000" d="M517,-122.0091C517,-138.0494 517,-159 517,-159 517,-159 603.849,-159 603.849,-159"/>
<polygon fill="#000000" stroke="#000000" points="603.849,-162.5001 613.849,-159 603.849,-155.5001 603.849,-162.5001"/>
</g>
<!-- DemoComponent  -->
<g id="node11" class="node">
<title>DemoComponent </title>
<polygon fill="#fb8072" stroke="#000000" points="720.5442,-252 601.4558,-252 601.4558,-216 720.5442,-216 720.5442,-252"/>
<text text-anchor="middle" x="661" y="-229.8" font-family="Times,serif" font-size="14.00" fill="#000000">DemoComponent </text>
</g>
<!-- DemoModule&#45;&gt;DemoComponent  -->
<g id="edge10" class="edge">
<title>DemoModule&#45;&gt;DemoComponent </title>
<path fill="none" stroke="#000000" stroke-dasharray="5,2" d="M661,-187.1061C661,-187.1061 661,-205.991 661,-205.991"/>
<polygon fill="#000000" stroke="#000000" points="657.5001,-205.9909 661,-215.991 664.5001,-205.991 657.5001,-205.9909"/>
</g>
<!-- CommonModule -->
<g id="node8" class="node">
<title>CommonModule</title>
<polygon fill="#8dd3c7" stroke="#000000" points="429.6681,-122 426.6681,-126 405.6681,-126 402.6681,-122 318.3319,-122 318.3319,-86 429.6681,-86 429.6681,-122"/>
<text text-anchor="middle" x="374" y="-99.8" font-family="Times,serif" font-size="14.00" fill="#000000">CommonModule</text>
</g>
<!-- CommonModule&#45;&gt;DemoModule -->
<g id="edge7" class="edge">
<title>CommonModule&#45;&gt;DemoModule</title>
<path fill="none" stroke="#000000" d="M374,-122.2667C374,-140.5552 374,-166 374,-166 374,-166 603.9292,-166 603.9292,-166"/>
<polygon fill="#000000" stroke="#000000" points="603.9292,-169.5001 613.9292,-166 603.9291,-162.5001 603.9292,-169.5001"/>
</g>
<!-- CloukitIconModule -->
<g id="node9" class="node">
<title>CloukitIconModule</title>
<polygon fill="#8dd3c7" stroke="#000000" points="300.4341,-122 297.4341,-126 276.4341,-126 273.4341,-122 173.5659,-122 173.5659,-86 300.4341,-86 300.4341,-122"/>
<text text-anchor="middle" x="237" y="-99.8" font-family="Times,serif" font-size="14.00" fill="#000000">CloukitIconModule</text>
</g>
<!-- CloukitIconModule&#45;&gt;DemoModule -->
<g id="edge8" class="edge">
<title>CloukitIconModule&#45;&gt;DemoModule</title>
<path fill="none" stroke="#000000" d="M237,-122.1289C237,-142.5724 237,-173 237,-173 237,-173 604.0046,-173 604.0046,-173"/>
<polygon fill="#000000" stroke="#000000" points="604.0046,-176.5001 614.0046,-173 604.0045,-169.5001 604.0046,-176.5001"/>
</g>
<!-- CloukitStoryModule -->
<g id="node10" class="node">
<title>CloukitStoryModule</title>
<polygon fill="#8dd3c7" stroke="#000000" points="155.892,-122 152.892,-126 131.892,-126 128.892,-122 24.108,-122 24.108,-86 155.892,-86 155.892,-122"/>
<text text-anchor="middle" x="90" y="-99.8" font-family="Times,serif" font-size="14.00" fill="#000000">CloukitStoryModule</text>
</g>
<!-- CloukitStoryModule&#45;&gt;DemoModule -->
<g id="edge9" class="edge">
<title>CloukitStoryModule&#45;&gt;DemoModule</title>
<path fill="none" stroke="#000000" d="M90,-122.0109C90,-144.4852 90,-180 90,-180 90,-180 603.7869,-180 603.7869,-180"/>
<polygon fill="#000000" stroke="#000000" points="603.7869,-183.5001 613.7869,-180 603.7868,-176.5001 603.7869,-183.5001"/>
</g>
</g>
</svg>
