<?xml version="1.0" encoding="UTF-8" standalone="no"?>
<!DOCTYPE svg PUBLIC "-//W3C//DTD SVG 1.1//EN"
 "http://www.w3.org/Graphics/SVG/1.1/DTD/svg11.dtd">
<!-- Generated by graphviz version 2.40.1 (20161225.0304)
 -->
<!-- Title: dependencies Pages: 1 -->
<svg width="1466pt" height="284pt"
 viewBox="0.00 0.00 1466.00 284.00" xmlns="http://www.w3.org/2000/svg" xmlns:xlink="http://www.w3.org/1999/xlink">
<g id="graph0" class="graph" transform="scale(1 1) rotate(0) translate(4 280)">
<title>dependencies</title>
<polygon fill="#ffffff" stroke="transparent" points="-4,4 -4,-280 1462,-280 1462,4 -4,4"/>
<text text-anchor="start" x="708.0091" y="-42.4" font-family="sans-serif" font-weight="bold" font-size="14.00" fill="#000000">Legend</text>
<polygon fill="#ffffb3" stroke="transparent" points="495,-10 495,-30 515,-30 515,-10 495,-10"/>
<text text-anchor="start" x="518.629" y="-15.4" font-family="sans-serif" font-size="14.00" fill="#000000"> &#160;Declarations</text>
<polygon fill="#8dd3c7" stroke="transparent" points="608,-10 608,-30 628,-30 628,-10 608,-10"/>
<text text-anchor="start" x="631.7251" y="-15.4" font-family="sans-serif" font-size="14.00" fill="#000000"> &#160;Module</text>
<polygon fill="#80b1d3" stroke="transparent" points="694,-10 694,-30 714,-30 714,-10 694,-10"/>
<text text-anchor="start" x="717.7812" y="-15.4" font-family="sans-serif" font-size="14.00" fill="#000000"> &#160;Bootstrap</text>
<polygon fill="#fdb462" stroke="transparent" points="791,-10 791,-30 811,-30 811,-10 791,-10"/>
<text text-anchor="start" x="814.6732" y="-15.4" font-family="sans-serif" font-size="14.00" fill="#000000"> &#160;Providers</text>
<polygon fill="#fb8072" stroke="transparent" points="887,-10 887,-30 907,-30 907,-10 887,-10"/>
<text text-anchor="start" x="910.7258" y="-15.4" font-family="sans-serif" font-size="14.00" fill="#000000"> &#160;Exports</text>
<g id="clust1" class="cluster">
<title>cluster_DemoModule</title>
<polygon fill="none" stroke="#000000" stroke-dasharray="1,5" points="8,-70 8,-268 1450,-268 1450,-70 8,-70"/>
</g>
<g id="clust2" class="cluster">
<title>cluster_DemoModule_declarations</title>
<polygon fill="none" stroke="#000000" points="446,-78 446,-130 1442,-130 1442,-78 446,-78"/>
</g>
<g id="clust10" class="cluster">
<title>cluster_DemoModule_imports</title>
<polygon fill="none" stroke="#000000" points="16,-78 16,-130 438,-130 438,-78 16,-78"/>
</g>
<g id="clust11" class="cluster">
<title>cluster_DemoModule_exports</title>
<polygon fill="none" stroke="#000000" points="665,-208 665,-260 801,-260 801,-208 665,-208"/>
</g>
<!-- DemoComponent -->
<g id="node1" class="node">
<title>DemoComponent</title>
<polygon fill="#ffffb3" stroke="#000000" points="1433.5451,-122 1318.4549,-122 1318.4549,-86 1433.5451,-86 1433.5451,-122"/>
<text text-anchor="middle" x="1376" y="-99.8" font-family="Times,serif" font-size="14.00" fill="#000000">DemoComponent</text>
</g>
<!-- DemoModule -->
<g id="node8" class="node">
<title>DemoModule</title>
<polygon fill="#8dd3c7" stroke="#000000" points="779.7619,-187 776.7619,-191 755.7619,-191 752.7619,-187 686.2381,-187 686.2381,-151 779.7619,-151 779.7619,-187"/>
<text text-anchor="middle" x="733" y="-164.8" font-family="Times,serif" font-size="14.00" fill="#000000">DemoModule</text>
</g>
<!-- DemoComponent&#45;&gt;DemoModule -->
<g id="edge1" class="edge">
<title>DemoComponent&#45;&gt;DemoModule</title>
<path fill="none" stroke="#000000" d="M1376,-122.0109C1376,-144.4852 1376,-180 1376,-180 1376,-180 790.0208,-180 790.0208,-180"/>
<polygon fill="#000000" stroke="#000000" points="790.0208,-176.5001 780.0208,-180 790.0208,-183.5001 790.0208,-176.5001"/>
</g>
<!-- Story00Component -->
<g id="node2" class="node">
<title>Story00Component</title>
<polygon fill="#ffffb3" stroke="#000000" points="1299.6666,-122 1174.3334,-122 1174.3334,-86 1299.6666,-86 1299.6666,-122"/>
<text text-anchor="middle" x="1237" y="-99.8" font-family="Times,serif" font-size="14.00" fill="#000000">Story00Component</text>
</g>
<!-- Story00Component&#45;&gt;DemoModule -->
<g id="edge2" class="edge">
<title>Story00Component&#45;&gt;DemoModule</title>
<path fill="none" stroke="#000000" d="M1237,-122.1289C1237,-142.5724 1237,-173 1237,-173 1237,-173 789.9625,-173 789.9625,-173"/>
<polygon fill="#000000" stroke="#000000" points="789.9625,-169.5001 779.9625,-173 789.9625,-176.5001 789.9625,-169.5001"/>
</g>
<!-- Story01Component -->
<g id="node3" class="node">
<title>Story01Component</title>
<polygon fill="#ffffb3" stroke="#000000" points="1155.6666,-122 1030.3334,-122 1030.3334,-86 1155.6666,-86 1155.6666,-122"/>
<text text-anchor="middle" x="1093" y="-99.8" font-family="Times,serif" font-size="14.00" fill="#000000">Story01Component</text>
</g>
<!-- Story01Component&#45;&gt;DemoModule -->
<g id="edge3" class="edge">
<title>Story01Component&#45;&gt;DemoModule</title>
<path fill="none" stroke="#000000" d="M1093,-122.2667C1093,-140.5552 1093,-166 1093,-166 1093,-166 790.0637,-166 790.0637,-166"/>
<polygon fill="#000000" stroke="#000000" points="790.0637,-162.5001 780.0637,-166 790.0637,-169.5001 790.0637,-162.5001"/>
</g>
<!-- Story02Component -->
<g id="node4" class="node">
<title>Story02Component</title>
<polygon fill="#ffffb3" stroke="#000000" points="1011.6666,-122 886.3334,-122 886.3334,-86 1011.6666,-86 1011.6666,-122"/>
<text text-anchor="middle" x="949" y="-99.8" font-family="Times,serif" font-size="14.00" fill="#000000">Story02Component</text>
</g>
<!-- Story02Component&#45;&gt;DemoModule -->
<g id="edge4" class="edge">
<title>Story02Component&#45;&gt;DemoModule</title>
<path fill="none" stroke="#000000" d="M949,-122.0091C949,-138.0494 949,-159 949,-159 949,-159 789.8688,-159 789.8688,-159"/>
<polygon fill="#000000" stroke="#000000" points="789.8688,-155.5001 779.8688,-159 789.8687,-162.5001 789.8688,-155.5001"/>
</g>
<!-- Story03Component -->
<g id="node5" class="node">
<title>Story03Component</title>
<polygon fill="#ffffb3" stroke="#000000" points="867.6666,-122 742.3334,-122 742.3334,-86 867.6666,-86 867.6666,-122"/>
<text text-anchor="middle" x="805" y="-99.8" font-family="Times,serif" font-size="14.00" fill="#000000">Story03Component</text>
</g>
<!-- Story03Component&#45;&gt;DemoModule -->
<g id="edge5" class="edge">
<title>Story03Component&#45;&gt;DemoModule</title>
<path fill="none" stroke="#000000" d="M761.0239,-122.1061C761.0239,-122.1061 761.0239,-140.991 761.0239,-140.991"/>
<polygon fill="#000000" stroke="#000000" points="757.5239,-140.9909 761.0239,-150.991 764.5239,-140.991 757.5239,-140.9909"/>
</g>
<!-- Story04Component -->
<g id="node6" class="node">
<title>Story04Component</title>
<polygon fill="#ffffb3" stroke="#000000" points="723.6666,-122 598.3334,-122 598.3334,-86 723.6666,-86 723.6666,-122"/>
<text text-anchor="middle" x="661" y="-99.8" font-family="Times,serif" font-size="14.00" fill="#000000">Story04Component</text>
</g>
<!-- Story04Component&#45;&gt;DemoModule -->
<g id="edge6" class="edge">
<title>Story04Component&#45;&gt;DemoModule</title>
<path fill="none" stroke="#000000" d="M704.9762,-122.1061C704.9762,-122.1061 704.9762,-140.991 704.9762,-140.991"/>
<polygon fill="#000000" stroke="#000000" points="701.4762,-140.9909 704.9762,-150.991 708.4762,-140.991 701.4762,-140.9909"/>
</g>
<!-- Story05Component -->
<g id="node7" class="node">
<title>Story05Component</title>
<polygon fill="#ffffb3" stroke="#000000" points="579.6666,-122 454.3334,-122 454.3334,-86 579.6666,-86 579.6666,-122"/>
<text text-anchor="middle" x="517" y="-99.8" font-family="Times,serif" font-size="14.00" fill="#000000">Story05Component</text>
</g>
<!-- Story05Component&#45;&gt;DemoModule -->
<g id="edge7" class="edge">
<title>Story05Component&#45;&gt;DemoModule</title>
<path fill="none" stroke="#000000" d="M517,-122.0091C517,-138.0494 517,-159 517,-159 517,-159 676.1312,-159 676.1312,-159"/>
<polygon fill="#000000" stroke="#000000" points="676.1313,-162.5001 686.1312,-159 676.1312,-155.5001 676.1313,-162.5001"/>
</g>
<!-- DemoComponent  -->
<g id="node12" class="node">
<title>DemoComponent </title>
<polygon fill="#fb8072" stroke="#000000" points="792.5442,-252 673.4558,-252 673.4558,-216 792.5442,-216 792.5442,-252"/>
<text text-anchor="middle" x="733" y="-229.8" font-family="Times,serif" font-size="14.00" fill="#000000">DemoComponent </text>
</g>
<!-- DemoModule&#45;&gt;DemoComponent  -->
<g id="edge11" class="edge">
<title>DemoModule&#45;&gt;DemoComponent </title>
<path fill="none" stroke="#000000" stroke-dasharray="5,2" d="M733,-187.1061C733,-187.1061 733,-205.991 733,-205.991"/>
<polygon fill="#000000" stroke="#000000" points="729.5001,-205.9909 733,-215.991 736.5001,-205.991 729.5001,-205.9909"/>
</g>
<!-- CommonModule -->
<g id="node9" class="node">
<title>CommonModule</title>
<polygon fill="#8dd3c7" stroke="#000000" points="429.6681,-122 426.6681,-126 405.6681,-126 402.6681,-122 318.3319,-122 318.3319,-86 429.6681,-86 429.6681,-122"/>
<text text-anchor="middle" x="374" y="-99.8" font-family="Times,serif" font-size="14.00" fill="#000000">CommonModule</text>
</g>
<!-- CommonModule&#45;&gt;DemoModule -->
<g id="edge8" class="edge">
<title>CommonModule&#45;&gt;DemoModule</title>
<path fill="none" stroke="#000000" d="M374,-122.2667C374,-140.5552 374,-166 374,-166 374,-166 676.067,-166 676.067,-166"/>
<polygon fill="#000000" stroke="#000000" points="676.0671,-169.5001 686.067,-166 676.067,-162.5001 676.0671,-169.5001"/>
</g>
<!-- CloukitIconModule -->
<g id="node10" class="node">
<title>CloukitIconModule</title>
<polygon fill="#8dd3c7" stroke="#000000" points="300.4341,-122 297.4341,-126 276.4341,-126 273.4341,-122 173.5659,-122 173.5659,-86 300.4341,-86 300.4341,-122"/>
<text text-anchor="middle" x="237" y="-99.8" font-family="Times,serif" font-size="14.00" fill="#000000">CloukitIconModule</text>
</g>
<!-- CloukitIconModule&#45;&gt;DemoModule -->
<g id="edge9" class="edge">
<title>CloukitIconModule&#45;&gt;DemoModule</title>
<path fill="none" stroke="#000000" d="M237,-122.1289C237,-142.5724 237,-173 237,-173 237,-173 675.8904,-173 675.8904,-173"/>
<polygon fill="#000000" stroke="#000000" points="675.8904,-176.5001 685.8904,-173 675.8903,-169.5001 675.8904,-176.5001"/>
</g>
<!-- CloukitStoryModule -->
<g id="node11" class="node">
<title>CloukitStoryModule</title>
<polygon fill="#8dd3c7" stroke="#000000" points="155.892,-122 152.892,-126 131.892,-126 128.892,-122 24.108,-122 24.108,-86 155.892,-86 155.892,-122"/>
<text text-anchor="middle" x="90" y="-99.8" font-family="Times,serif" font-size="14.00" fill="#000000">CloukitStoryModule</text>
</g>
<!-- CloukitStoryModule&#45;&gt;DemoModule -->
<g id="edge10" class="edge">
<title>CloukitStoryModule&#45;&gt;DemoModule</title>
<path fill="none" stroke="#000000" d="M90,-122.0109C90,-144.4852 90,-180 90,-180 90,-180 675.9792,-180 675.9792,-180"/>
<polygon fill="#000000" stroke="#000000" points="675.9792,-183.5001 685.9792,-180 675.9792,-176.5001 675.9792,-183.5001"/>
</g>
</g>
</svg>
