<?xml version="1.0" encoding="UTF-8" standalone="no"?>
<!DOCTYPE svg PUBLIC "-//W3C//DTD SVG 1.1//EN"
 "http://www.w3.org/Graphics/SVG/1.1/DTD/svg11.dtd">
<!-- Generated by graphviz version 2.40.1 (20161225.0304)
 -->
<!-- Title: dependencies Pages: 1 -->
<svg width="504pt" height="352pt"
 viewBox="0.00 0.00 504.00 352.00" xmlns="http://www.w3.org/2000/svg" xmlns:xlink="http://www.w3.org/1999/xlink">
<g id="graph0" class="graph" transform="scale(1 1) rotate(0) translate(4 348)">
<title>dependencies</title>
<polygon fill="#ffffff" stroke="transparent" points="-4,4 -4,-348 500,-348 500,4 -4,4"/>
<text text-anchor="start" x="227.0091" y="-42.4" font-family="sans-serif" font-weight="bold" font-size="14.00" fill="#000000">Legend</text>
<polygon fill="#ffffb3" stroke="transparent" points="14,-10 14,-30 34,-30 34,-10 14,-10"/>
<text text-anchor="start" x="37.629" y="-15.4" font-family="sans-serif" font-size="14.00" fill="#000000"> &#160;Declarations</text>
<polygon fill="#8dd3c7" stroke="transparent" points="127,-10 127,-30 147,-30 147,-10 127,-10"/>
<text text-anchor="start" x="150.7251" y="-15.4" font-family="sans-serif" font-size="14.00" fill="#000000"> &#160;Module</text>
<polygon fill="#80b1d3" stroke="transparent" points="213,-10 213,-30 233,-30 233,-10 213,-10"/>
<text text-anchor="start" x="236.7812" y="-15.4" font-family="sans-serif" font-size="14.00" fill="#000000"> &#160;Bootstrap</text>
<polygon fill="#fdb462" stroke="transparent" points="310,-10 310,-30 330,-30 330,-10 310,-10"/>
<text text-anchor="start" x="333.6732" y="-15.4" font-family="sans-serif" font-size="14.00" fill="#000000"> &#160;Providers</text>
<polygon fill="#fb8072" stroke="transparent" points="406,-10 406,-30 426,-30 426,-10 406,-10"/>
<text text-anchor="start" x="429.7258" y="-15.4" font-family="sans-serif" font-size="14.00" fill="#000000"> &#160;Exports</text>
<g id="clust1" class="cluster">
<title>cluster_CloukitIconModule</title>
<polygon fill="none" stroke="#000000" stroke-dasharray="1,5" points="76,-70 76,-268 260,-268 260,-70 76,-70"/>
</g>
<g id="clust3" class="cluster">
<title>cluster_CloukitIconModule_imports</title>
<polygon fill="none" stroke="#000000" points="124,-78 124,-130 252,-130 252,-78 124,-78"/>
</g>
<g id="clust4" class="cluster">
<title>cluster_CloukitIconModule_exports</title>
<polygon fill="none" stroke="#000000" points="84,-208 84,-260 252,-260 252,-208 84,-208"/>
</g>
<g id="clust7" class="cluster">
<title>cluster_DemoModule</title>
<polygon fill="none" stroke="#000000" stroke-dasharray="1,5" points="268,-208 268,-336 420,-336 420,-208 268,-208"/>
</g>
<g id="clust10" class="cluster">
<title>cluster_DemoModule_exports</title>
<polygon fill="none" stroke="#000000" points="276,-276 276,-328 412,-328 412,-276 276,-276"/>
</g>
<!-- CommonModule -->
<g id="node1" class="node">
<title>CommonModule</title>
<polygon fill="#8dd3c7" stroke="#000000" points="243.6681,-122 240.6681,-126 219.6681,-126 216.6681,-122 132.3319,-122 132.3319,-86 243.6681,-86 243.6681,-122"/>
<text text-anchor="middle" x="188" y="-99.8" font-family="Times,serif" font-size="14.00" fill="#000000">CommonModule</text>
</g>
<!-- CloukitIconModule -->
<g id="node2" class="node">
<title>CloukitIconModule</title>
<polygon fill="#8dd3c7" stroke="#000000" points="251.4341,-187 248.4341,-191 227.4341,-191 224.4341,-187 124.5659,-187 124.5659,-151 251.4341,-151 251.4341,-187"/>
<text text-anchor="middle" x="188" y="-164.8" font-family="Times,serif" font-size="14.00" fill="#000000">CloukitIconModule</text>
</g>
<!-- CommonModule&#45;&gt;CloukitIconModule -->
<g id="edge1" class="edge">
<title>CommonModule&#45;&gt;CloukitIconModule</title>
<path fill="none" stroke="#000000" d="M188,-122.1061C188,-122.1061 188,-140.991 188,-140.991"/>
<polygon fill="#000000" stroke="#000000" points="184.5001,-140.9909 188,-150.991 191.5001,-140.991 184.5001,-140.9909"/>
</g>
<!-- DemoModule -->
<g id="node4" class="node">
<title>DemoModule</title>
<polygon fill="#8dd3c7" stroke="#000000" points="369.7619,-252 366.7619,-256 345.7619,-256 342.7619,-252 276.2381,-252 276.2381,-216 369.7619,-216 369.7619,-252"/>
<text text-anchor="middle" x="323" y="-229.8" font-family="Times,serif" font-size="14.00" fill="#000000">DemoModule</text>
</g>
<!-- CommonModule&#45;&gt;DemoModule -->
<g id="edge3" class="edge">
<title>CommonModule&#45;&gt;DemoModule</title>
<path fill="none" stroke="#000000" d="M243.6891,-104C280.8764,-104 323,-104 323,-104 323,-104 323,-205.9241 323,-205.9241"/>
<polygon fill="#000000" stroke="#000000" points="319.5001,-205.924 323,-215.9241 326.5001,-205.9241 319.5001,-205.924"/>
</g>
<!-- CloukitIconComponent  -->
<g id="node3" class="node">
<title>CloukitIconComponent </title>
<polygon fill="#fb8072" stroke="#000000" points="243.7163,-252 92.2837,-252 92.2837,-216 243.7163,-216 243.7163,-252"/>
<text text-anchor="middle" x="168" y="-229.8" font-family="Times,serif" font-size="14.00" fill="#000000">CloukitIconComponent </text>
</g>
<!-- CloukitIconModule&#45;&gt;CloukitIconComponent  -->
<g id="edge2" class="edge">
<title>CloukitIconModule&#45;&gt;CloukitIconComponent </title>
<path fill="none" stroke="#000000" stroke-dasharray="5,2" d="M184.3207,-187.1061C184.3207,-187.1061 184.3207,-205.991 184.3207,-205.991"/>
<polygon fill="#000000" stroke="#000000" points="180.8207,-205.9909 184.3207,-215.991 187.8207,-205.991 180.8207,-205.9909"/>
</g>
<!-- CloukitIconModule&#45;&gt;DemoModule -->
<g id="edge4" class="edge">
<title>CloukitIconModule&#45;&gt;DemoModule</title>
<path fill="none" stroke="#000000" d="M247.5374,-187.1061C247.5374,-206.3391 247.5374,-234 247.5374,-234 247.5374,-234 266.0665,-234 266.0665,-234"/>
<polygon fill="#000000" stroke="#000000" points="266.0666,-237.5001 276.0665,-234 266.0665,-230.5001 266.0666,-237.5001"/>
</g>
<!-- DemoComponent  -->
<g id="node5" class="node">
<title>DemoComponent </title>
<polygon fill="#fb8072" stroke="#000000" points="403.5442,-320 284.4558,-320 284.4558,-284 403.5442,-284 403.5442,-320"/>
<text text-anchor="middle" x="344" y="-297.8" font-family="Times,serif" font-size="14.00" fill="#000000">DemoComponent </text>
</g>
<!-- DemoModule&#45;&gt;DemoComponent  -->
<g id="edge5" class="edge">
<title>DemoModule&#45;&gt;DemoComponent </title>
<path fill="none" stroke="#000000" stroke-dasharray="5,2" d="M327.1794,-252.2228C327.1794,-252.2228 327.1794,-273.7269 327.1794,-273.7269"/>
<polygon fill="#000000" stroke="#000000" points="323.6794,-273.7269 327.1794,-283.7269 330.6794,-273.727 323.6794,-273.7269"/>
</g>
</g>
</svg>
