<?xml version="1.0" encoding="UTF-8" standalone="no"?>
<!DOCTYPE svg PUBLIC "-//W3C//DTD SVG 1.1//EN"
 "http://www.w3.org/Graphics/SVG/1.1/DTD/svg11.dtd">
<!-- Generated by graphviz version 2.40.1 (20161225.0304)
 -->
<!-- Title: dependencies Pages: 1 -->
<svg width="504pt" height="355pt"
 viewBox="0.00 0.00 504.00 355.00" xmlns="http://www.w3.org/2000/svg" xmlns:xlink="http://www.w3.org/1999/xlink">
<g id="graph0" class="graph" transform="scale(1 1) rotate(0) translate(4 351)">
<title>dependencies</title>
<polygon fill="#ffffff" stroke="transparent" points="-4,4 -4,-351 500,-351 500,4 -4,4"/>
<text text-anchor="start" x="227.0091" y="-42.4" font-family="sans-serif" font-weight="bold" font-size="14.00" fill="#000000">Legend</text>
<polygon fill="#ffffb3" stroke="transparent" points="14,-10 14,-30 34,-30 34,-10 14,-10"/>
<text text-anchor="start" x="37.629" y="-15.4" font-family="sans-serif" font-size="14.00" fill="#000000"> &#160;Declarations</text>
<polygon fill="#8dd3c7" stroke="transparent" points="127,-10 127,-30 147,-30 147,-10 127,-10"/>
<text text-anchor="start" x="150.7251" y="-15.4" font-family="sans-serif" font-size="14.00" fill="#000000"> &#160;Module</text>
<polygon fill="#80b1d3" stroke="transparent" points="213,-10 213,-30 233,-30 233,-10 213,-10"/>
<text text-anchor="start" x="236.7812" y="-15.4" font-family="sans-serif" font-size="14.00" fill="#000000"> &#160;Bootstrap</text>
<polygon fill="#fdb462" stroke="transparent" points="310,-10 310,-30 330,-30 330,-10 310,-10"/>
<text text-anchor="start" x="333.6732" y="-15.4" font-family="sans-serif" font-size="14.00" fill="#000000"> &#160;Providers</text>
<polygon fill="#fb8072" stroke="transparent" points="406,-10 406,-30 426,-30 426,-10 406,-10"/>
<text text-anchor="start" x="429.7258" y="-15.4" font-family="sans-serif" font-size="14.00" fill="#000000"> &#160;Exports</text>
<g id="clust1" class="cluster">
<title>cluster_CloukitIconModule</title>
<polygon fill="none" stroke="#000000" stroke-dasharray="1,5" points="68.5,-70 68.5,-271 252.5,-271 252.5,-70 68.5,-70"/>
</g>
<g id="clust3" class="cluster">
<title>cluster_CloukitIconModule_imports</title>
<polygon fill="none" stroke="#000000" points="106.5,-78 106.5,-130 234.5,-130 234.5,-78 106.5,-78"/>
</g>
<g id="clust4" class="cluster">
<title>cluster_CloukitIconModule_exports</title>
<polygon fill="none" stroke="#000000" points="76.5,-211 76.5,-263 244.5,-263 244.5,-211 76.5,-211"/>
</g>
<g id="clust7" class="cluster">
<title>cluster_DemoModule</title>
<polygon fill="none" stroke="#000000" stroke-dasharray="1,5" points="263.5,-138 263.5,-339 427.5,-339 427.5,-138 263.5,-138"/>
</g>
<g id="clust9" class="cluster">
<title>cluster_DemoModule_imports</title>
<polygon fill="none" stroke="#000000" points="271.5,-146 271.5,-198 419.5,-198 419.5,-146 271.5,-146"/>
</g>
<g id="clust10" class="cluster">
<title>cluster_DemoModule_exports</title>
<polygon fill="none" stroke="#000000" points="271.5,-279 271.5,-331 407.5,-331 407.5,-279 271.5,-279"/>
</g>
<!-- CommonModule -->
<g id="node1" class="node">
<title>CommonModule</title>
<polygon fill="#8dd3c7" stroke="#000000" points="226.1681,-122 223.1681,-126 202.1681,-126 199.1681,-122 114.8319,-122 114.8319,-86 226.1681,-86 226.1681,-122"/>
<text text-anchor="middle" x="170.5" y="-99.8" font-family="Times,serif" font-size="14.00" fill="#000000">CommonModule</text>
</g>
<!-- CloukitIconModule -->
<g id="node2" class="node">
<title>CloukitIconModule</title>
<polygon fill="#8dd3c7" stroke="#000000" points="223.9341,-190 220.9341,-194 199.9341,-194 196.9341,-190 97.0659,-190 97.0659,-154 223.9341,-154 223.9341,-190"/>
<text text-anchor="middle" x="160.5" y="-167.8" font-family="Times,serif" font-size="14.00" fill="#000000">CloukitIconModule</text>
</g>
<!-- CommonModule&#45;&gt;CloukitIconModule -->
<g id="edge1" class="edge">
<title>CommonModule&#45;&gt;CloukitIconModule</title>
<path fill="none" stroke="#000000" d="M169.1914,-122.2228C169.1914,-122.2228 169.1914,-143.7269 169.1914,-143.7269"/>
<polygon fill="#000000" stroke="#000000" points="165.6915,-143.7269 169.1914,-153.7269 172.6915,-143.727 165.6915,-143.7269"/>
</g>
<!-- DemoModule -->
<g id="node5" class="node">
<title>DemoModule</title>
<polygon fill="#8dd3c7" stroke="#000000" points="375.2619,-255 372.2619,-259 351.2619,-259 348.2619,-255 281.7381,-255 281.7381,-219 375.2619,-219 375.2619,-255"/>
<text text-anchor="middle" x="328.5" y="-232.8" font-family="Times,serif" font-size="14.00" fill="#000000">DemoModule</text>
</g>
<!-- CommonModule&#45;&gt;DemoModule -->
<g id="edge3" class="edge">
<title>CommonModule&#45;&gt;DemoModule</title>
<path fill="none" stroke="#000000" d="M226.3823,-104C246.8756,-104 265.1553,-104 265.1553,-104 265.1553,-104 265.1553,-231 265.1553,-231 265.1553,-231 271.4682,-231 271.4682,-231"/>
<polygon fill="#000000" stroke="#000000" points="271.4682,-234.5001 281.4682,-231 271.4681,-227.5001 271.4682,-234.5001"/>
</g>
<!-- CloukitIconComponent  -->
<g id="node3" class="node">
<title>CloukitIconComponent </title>
<polygon fill="#fb8072" stroke="#000000" points="236.2163,-255 84.7837,-255 84.7837,-219 236.2163,-219 236.2163,-255"/>
<text text-anchor="middle" x="160.5" y="-232.8" font-family="Times,serif" font-size="14.00" fill="#000000">CloukitIconComponent </text>
</g>
<!-- CloukitIconModule&#45;&gt;CloukitIconComponent  -->
<g id="edge2" class="edge">
<title>CloukitIconModule&#45;&gt;CloukitIconComponent </title>
<path fill="none" stroke="#000000" stroke-dasharray="5,2" d="M160.5,-190.1061C160.5,-190.1061 160.5,-208.991 160.5,-208.991"/>
<polygon fill="#000000" stroke="#000000" points="157.0001,-208.9909 160.5,-218.991 164.0001,-208.991 157.0001,-208.9909"/>
</g>
<!-- CloukitIconModule&#45;&gt;DemoModule -->
<g id="edge4" class="edge">
<title>CloukitIconModule&#45;&gt;DemoModule</title>
<path fill="none" stroke="#000000" d="M224.1649,-172C239.1,-172 250.7567,-172 250.7567,-172 250.7567,-172 250.7567,-243 250.7567,-243 250.7567,-243 271.4829,-243 271.4829,-243"/>
<polygon fill="#000000" stroke="#000000" points="271.4829,-246.5001 281.4829,-243 271.4829,-239.5001 271.4829,-246.5001"/>
</g>
<!-- CloukitStoryModule -->
<g id="node4" class="node">
<title>CloukitStoryModule</title>
<polygon fill="#8dd3c7" stroke="#000000" points="411.392,-190 408.392,-194 387.392,-194 384.392,-190 279.608,-190 279.608,-154 411.392,-154 411.392,-190"/>
<text text-anchor="middle" x="345.5" y="-167.8" font-family="Times,serif" font-size="14.00" fill="#000000">CloukitStoryModule</text>
</g>
<!-- CloukitStoryModule&#45;&gt;DemoModule -->
<g id="edge5" class="edge">
<title>CloukitStoryModule&#45;&gt;DemoModule</title>
<path fill="none" stroke="#000000" d="M328.5,-190.1061C328.5,-190.1061 328.5,-208.991 328.5,-208.991"/>
<polygon fill="#000000" stroke="#000000" points="325.0001,-208.9909 328.5,-218.991 332.0001,-208.991 325.0001,-208.9909"/>
</g>
<!-- DemoComponent  -->
<g id="node6" class="node">
<title>DemoComponent </title>
<polygon fill="#fb8072" stroke="#000000" points="399.0442,-323 279.9558,-323 279.9558,-287 399.0442,-287 399.0442,-323"/>
<text text-anchor="middle" x="339.5" y="-300.8" font-family="Times,serif" font-size="14.00" fill="#000000">DemoComponent </text>
</g>
<!-- DemoModule&#45;&gt;DemoComponent  -->
<g id="edge6" class="edge">
<title>DemoModule&#45;&gt;DemoComponent </title>
<path fill="none" stroke="#000000" stroke-dasharray="5,2" d="M328.5,-255.2228C328.5,-255.2228 328.5,-276.7269 328.5,-276.7269"/>
<polygon fill="#000000" stroke="#000000" points="325.0001,-276.7269 328.5,-286.7269 332.0001,-276.727 325.0001,-276.7269"/>
</g>
</g>
</svg>
